<svg width="18" height="18" viewBox="0 0 18 18" fill="none" xmlns="http://www.w3.org/2000/svg">
<path d="M15.26 0H2.74C2.01331 0 1.31638 0.288678 0.802527 0.802527C0.288678 1.31638 0 2.01331 0 2.74V15.26C0 15.9867 0.288678 16.6836 0.802527 17.1975C1.31638 17.7113 2.01331 18 2.74 18H15.26C15.9867 18 16.6836 17.7113 17.1975 17.1975C17.7113 16.6836 18 15.9867 18 15.26V2.74C18 2.01331 17.7113 1.31638 17.1975 0.802527C16.6836 0.288678 15.9867 0 15.26 0ZM4 8H2V6H4V8ZM2 10H4V12H2V10ZM6 2H12V16H6V2ZM16 8H14V6H16V8ZM14 10H16V12H14V10ZM16 2.74V4H14V2H15.26C15.3572 2 15.4534 2.01914 15.5432 2.05633C15.633 2.09352 15.7145 2.14803 15.7833 2.21674C15.852 2.28546 15.9065 2.36703 15.9437 2.45681C15.9809 2.5466 16 2.64282 16 2.74ZM2.74 2H4V4H2V2.74C2 2.64282 2.01914 2.5466 2.05633 2.45681C2.09352 2.36703 2.14803 2.28546 2.21674 2.21674C2.28546 2.14803 2.36703 2.09352 2.45681 2.05633C2.5466 2.01914 2.64282 2 2.74 2ZM2 15.26V14H4V16H2.74C2.64282 16 2.5466 15.9809 2.45681 15.9437C2.36703 15.9065 2.28546 15.852 2.21674 15.7833C2.14803 15.7145 2.09352 15.633 2.05633 15.5432C2.01914 15.4534 2 15.3572 2 15.26ZM16 15.26C16 15.4563 15.922 15.6445 15.7833 15.7833C15.6445 15.922 15.4563 16 15.26 16H14V14H16V15.26Z" fill="#1F2539"/>
</svg>
