<svg width="24" height="24" viewBox="0 0 24 24" fill="none" xmlns="http://www.w3.org/2000/svg">
<path d="M17.8113 13.3898C19.5717 11.9438 20.7129 9.87968 21.0013 7.61985C21.0171 7.48853 21.0068 7.35539 20.9711 7.22803C20.9354 7.10068 20.875 6.9816 20.7933 6.8776C20.7116 6.77359 20.6102 6.68671 20.4949 6.62189C20.3796 6.55708 20.2526 6.51561 20.1213 6.49985C19.99 6.48409 19.8568 6.49435 19.7295 6.53005C19.6021 6.56574 19.4831 6.62617 19.3791 6.70789C19.2751 6.78961 19.1882 6.89101 19.1234 7.0063C19.0585 7.1216 19.0171 7.24853 19.0013 7.37985C18.7622 9.06613 17.9225 10.6094 16.6364 11.726C15.3504 12.8426 13.7045 13.4574 12.0013 13.4574C10.2982 13.4574 8.65226 12.8426 7.36621 11.726C6.08015 10.6094 5.24039 9.06613 5.00131 7.37985C4.98556 7.24853 4.94409 7.1216 4.87927 7.0063C4.81446 6.89101 4.72757 6.78961 4.62357 6.70789C4.51957 6.62617 4.40049 6.56574 4.27313 6.53005C4.14578 6.49435 4.01264 6.48409 3.88131 6.49985C3.74999 6.51561 3.62306 6.55708 3.50777 6.62189C3.39247 6.68671 3.29107 6.77359 3.20936 6.8776C3.12764 6.9816 3.06721 7.10068 3.03151 7.22803C2.99582 7.35539 2.98556 7.48853 3.00131 7.61985C3.28715 9.87819 4.42464 11.9421 6.18131 13.3898L3.88131 15.7098C3.71749 15.9012 3.63188 16.1472 3.6416 16.3989C3.65132 16.6506 3.75566 16.8893 3.93375 17.0674C4.11185 17.2455 4.35059 17.3498 4.60226 17.3596C4.85394 17.3693 5.10001 17.2837 5.29131 17.1199L7.90131 14.5198C8.87112 15.0099 9.92117 15.3216 11.0013 15.4398V18.9998C11.0013 19.2651 11.1067 19.5194 11.2942 19.707C11.4817 19.8945 11.7361 19.9998 12.0013 19.9998C12.2665 19.9998 12.5209 19.8945 12.7084 19.707C12.896 19.5194 13.0013 19.2651 13.0013 18.9998V15.4398C14.0815 15.3216 15.1315 15.0099 16.1013 14.5198L18.7113 17.1199C18.9026 17.2837 19.1487 17.3693 19.4004 17.3596C19.652 17.3498 19.8908 17.2455 20.0689 17.0674C20.247 16.8893 20.3513 16.6506 20.361 16.3989C20.3707 16.1472 20.2851 15.9012 20.1213 15.7098L17.8113 13.3898Z" fill="#5568FE"/>
</svg>
