<svg width="24" height="23" viewBox="0 0 24 23" fill="none" xmlns="http://www.w3.org/2000/svg">
<path d="M18.4869 22.5C18.3003 22.5008 18.1163 22.4568 17.9502 22.3717L12.0002 19.2567L6.05021 22.3717C5.857 22.4733 5.63917 22.5186 5.42147 22.5026C5.20377 22.4865 4.99494 22.4097 4.81871 22.2809C4.64249 22.1521 4.50594 21.9764 4.42459 21.7738C4.34325 21.5713 4.32036 21.3499 4.35854 21.135L5.52521 14.5667L0.718545 9.90001C0.568579 9.75036 0.462195 9.56269 0.41081 9.35715C0.359426 9.15162 0.36498 8.93597 0.426878 8.73335C0.494498 8.526 0.618884 8.34176 0.78592 8.20153C0.952956 8.0613 1.15595 7.9707 1.37188 7.94001L8.02188 6.97168L10.9502 0.98668C11.0457 0.789431 11.1949 0.62308 11.3806 0.506683C11.5663 0.390287 11.781 0.328552 12.0002 0.328552C12.2194 0.328552 12.4341 0.390287 12.6198 0.506683C12.8055 0.62308 12.9547 0.789431 13.0502 0.98668L16.0135 6.96001L22.6635 7.92835C22.8795 7.95904 23.0825 8.04964 23.2495 8.18986C23.4165 8.33009 23.5409 8.51433 23.6085 8.72168C23.6704 8.9243 23.676 9.13995 23.6246 9.34549C23.5732 9.55103 23.4668 9.73869 23.3169 9.88834L18.5102 14.555L19.6769 21.1233C19.7185 21.3421 19.6967 21.5681 19.614 21.7749C19.5313 21.9816 19.3912 22.1603 19.2102 22.29C18.999 22.4381 18.7446 22.5119 18.4869 22.5ZM12.0002 16.7833C12.1872 16.7786 12.3722 16.8229 12.5369 16.9117L16.9352 19.245L16.0952 14.3333C16.0626 14.1458 16.0764 13.9531 16.1354 13.7721C16.1944 13.5912 16.2967 13.4274 16.4335 13.295L19.9335 9.87668L15.0335 9.15335C14.8539 9.11717 14.6852 9.03916 14.5413 8.92566C14.3974 8.81215 14.2823 8.66633 14.2052 8.50001L12.0002 4.12501L9.79521 8.50001C9.7108 8.66767 9.58718 8.81248 9.43486 8.92216C9.28253 9.03183 9.10598 9.10314 8.92021 9.13001L4.02021 9.85334L7.52021 13.2717C7.65703 13.404 7.7594 13.5678 7.81837 13.7488C7.87734 13.9298 7.89114 14.1225 7.85854 14.31L7.01855 19.1633L11.4169 16.83C11.6032 16.7607 11.8052 16.7446 12.0002 16.7833Z" fill="#C0C2CC"/>
</svg>
