<svg width="24" height="24" viewBox="0 0 24 24" fill="none" xmlns="http://www.w3.org/2000/svg">
<path d="M17 3.49993C17 3.36732 16.9473 3.24015 16.8536 3.14638C16.7598 3.05261 16.6326 2.99993 16.5 2.99993H14C12.7411 2.93722 11.5086 3.37532 10.5717 4.21851C9.63485 5.0617 9.06978 6.24143 9 7.49993V10.1999H6.5C6.36739 10.1999 6.24021 10.2526 6.14645 10.3464C6.05268 10.4401 6 10.5673 6 10.6999V13.2999C6 13.4325 6.05268 13.5597 6.14645 13.6535C6.24021 13.7473 6.36739 13.7999 6.5 13.7999H9V20.4999C9 20.6325 9.05268 20.7597 9.14645 20.8535C9.24021 20.9473 9.36739 20.9999 9.5 20.9999H12.5C12.6326 20.9999 12.7598 20.9473 12.8536 20.8535C12.9473 20.7597 13 20.6325 13 20.4999V13.7999H15.62C15.7312 13.8015 15.8397 13.766 15.9285 13.699C16.0172 13.632 16.0811 13.5373 16.11 13.4299L16.83 10.8299C16.8499 10.7561 16.8526 10.6786 16.8378 10.6035C16.8231 10.5284 16.7913 10.4578 16.7449 10.3969C16.6985 10.336 16.6388 10.2866 16.5704 10.2525C16.5019 10.2183 16.4265 10.2004 16.35 10.1999H13V7.49993C13.0249 7.25241 13.1411 7.02304 13.326 6.85662C13.5109 6.69021 13.7512 6.59868 14 6.59993H16.5C16.6326 6.59993 16.7598 6.54725 16.8536 6.45348C16.9473 6.35972 17 6.23254 17 6.09993V3.49993Z" fill="#C0C2CC"/>
</svg>
