<svg width="24" height="24" viewBox="0 0 24 24" fill="none" xmlns="http://www.w3.org/2000/svg">
<path d="M20 6.00004H16V4.33004C15.9765 3.68985 15.7002 3.08509 15.2316 2.64833C14.7629 2.21156 14.1402 1.97843 13.5 2.00004H10.5C9.85975 1.97843 9.23706 2.21156 8.76843 2.64833C8.2998 3.08509 8.02346 3.68985 8 4.33004V6.00004H4C3.73478 6.00004 3.48043 6.10539 3.29289 6.29293C3.10536 6.48047 3 6.73482 3 7.00004C3 7.26525 3.10536 7.51961 3.29289 7.70714C3.48043 7.89468 3.73478 8.00004 4 8.00004H5V19C5 19.7957 5.31607 20.5587 5.87868 21.1214C6.44129 21.684 7.20435 22 8 22H16C16.7956 22 17.5587 21.684 18.1213 21.1214C18.6839 20.5587 19 19.7957 19 19V8.00004H20C20.2652 8.00004 20.5196 7.89468 20.7071 7.70714C20.8946 7.51961 21 7.26525 21 7.00004C21 6.73482 20.8946 6.48047 20.7071 6.29293C20.5196 6.10539 20.2652 6.00004 20 6.00004ZM10 4.33004C10 4.17004 10.21 4.00004 10.5 4.00004H13.5C13.79 4.00004 14 4.17004 14 4.33004V6.00004H10V4.33004ZM17 19C17 19.2653 16.8946 19.5196 16.7071 19.7071C16.5196 19.8947 16.2652 20 16 20H8C7.73478 20 7.48043 19.8947 7.29289 19.7071C7.10536 19.5196 7 19.2653 7 19V8.00004H17V19Z" fill="#C0C2CC"/>
</svg>
