<svg width="24" height="24" viewBox="0 0 24 24" fill="none" xmlns="http://www.w3.org/2000/svg">
<path d="M20 6.00001H16V4.33001C15.9765 3.68982 15.7002 3.08506 15.2316 2.6483C14.7629 2.21153 14.1402 1.9784 13.5 2.00001H10.5C9.85975 1.9784 9.23706 2.21153 8.76843 2.6483C8.2998 3.08506 8.02346 3.68982 8 4.33001V6.00001H4C3.73478 6.00001 3.48043 6.10536 3.29289 6.2929C3.10536 6.48043 3 6.73479 3 7.00001C3 7.26522 3.10536 7.51958 3.29289 7.70711C3.48043 7.89465 3.73478 8.00001 4 8.00001H5V19C5 19.7957 5.31607 20.5587 5.87868 21.1213C6.44129 21.6839 7.20435 22 8 22H16C16.7956 22 17.5587 21.6839 18.1213 21.1213C18.6839 20.5587 19 19.7957 19 19V8.00001H20C20.2652 8.00001 20.5196 7.89465 20.7071 7.70711C20.8946 7.51958 21 7.26522 21 7.00001C21 6.73479 20.8946 6.48043 20.7071 6.2929C20.5196 6.10536 20.2652 6.00001 20 6.00001ZM10 4.33001C10 4.17001 10.21 4.00001 10.5 4.00001H13.5C13.79 4.00001 14 4.17001 14 4.33001V6.00001H10V4.33001ZM17 19C17 19.2652 16.8946 19.5196 16.7071 19.7071C16.5196 19.8946 16.2652 20 16 20H8C7.73478 20 7.48043 19.8946 7.29289 19.7071C7.10536 19.5196 7 19.2652 7 19V8.00001H17V19Z" fill="#5568FE"/>
</svg>
