<svg width="18" height="18" viewBox="0 0 18 18" fill="none" xmlns="http://www.w3.org/2000/svg">
<path d="M17.9998 3C17.9998 2.20435 17.6837 1.44129 17.1211 0.87868C16.5585 0.316071 15.7955 0 14.9998 0H2.99982C2.3958 0.00357637 1.80694 0.189397 1.31027 0.533148C0.813604 0.876898 0.432268 1.36257 0.216161 1.92661C5.41508e-05 2.49065 -0.0407587 3.10679 0.0990632 3.6944C0.238885 4.28202 0.552829 4.81374 0.999816 5.22V15C0.999816 15.7956 1.31589 16.5587 1.8785 17.1213C2.44111 17.6839 3.20417 18 3.99982 18H13.9998C14.7955 18 15.5585 17.6839 16.1211 17.1213C16.6837 16.5587 16.9998 15.7956 16.9998 15V5.22C17.3124 4.94042 17.5629 4.59839 17.7352 4.21601C17.9074 3.83363 17.9976 3.41938 17.9998 3ZM2.99982 2H14.9998C15.265 2 15.5194 2.10536 15.7069 2.29289C15.8945 2.48043 15.9998 2.73478 15.9998 3C15.9998 3.26522 15.8945 3.51957 15.7069 3.70711C15.5194 3.89464 15.265 4 14.9998 4H2.99982C2.7346 4 2.48025 3.89464 2.29271 3.70711C2.10517 3.51957 1.99982 3.26522 1.99982 3C1.99982 2.73478 2.10517 2.48043 2.29271 2.29289C2.48025 2.10536 2.7346 2 2.99982 2ZM14.9998 15C14.9998 15.2652 14.8945 15.5196 14.7069 15.7071C14.5194 15.8946 14.265 16 13.9998 16H3.99982C3.7346 16 3.48025 15.8946 3.29271 15.7071C3.10517 15.5196 2.99982 15.2652 2.99982 15V6H14.9998V15Z" fill="#C0C2CC"/>
</svg>
