<svg width="24" height="24" viewBox="0 0 24 24" fill="none" xmlns="http://www.w3.org/2000/svg">
<path d="M11.9995 12.0001C12.5518 12.0001 12.9995 11.5524 12.9995 11.0001C12.9995 10.4478 12.5518 10.0001 11.9995 10.0001C11.4472 10.0001 10.9995 10.4478 10.9995 11.0001C10.9995 11.5524 11.4472 12.0001 11.9995 12.0001Z" fill="#5568FE"/>
<path d="M16 12.0001C16.5523 12.0001 17 11.5524 17 11.0001C17 10.4478 16.5523 10.0001 16 10.0001C15.4477 10.0001 15 10.4478 15 11.0001C15 11.5524 15.4477 12.0001 16 12.0001Z" fill="#5568FE"/>
<path d="M8.00024 12.0001C8.55253 12.0001 9.00024 11.5524 9.00024 11.0001C9.00024 10.4478 8.55253 10.0001 8.00024 10.0001C7.44796 10.0001 7.00024 10.4478 7.00024 11.0001C7.00024 11.5524 7.44796 12.0001 8.00024 12.0001Z" fill="#5568FE"/>
<path d="M18.9998 3H4.99976C4.20411 3 3.44104 3.31607 2.87844 3.87868C2.31583 4.44129 1.99976 5.20435 1.99976 6V21C2.00006 21.1772 2.04744 21.3511 2.13706 21.504C2.22667 21.6569 2.35529 21.7832 2.50976 21.87C2.65921 21.9547 2.82797 21.9995 2.99976 22C3.17924 21.9999 3.3554 21.9516 3.50976 21.86L7.99976 19.14C8.16572 19.0412 8.35675 18.9926 8.54976 19H18.9998C19.7954 19 20.5585 18.6839 21.1211 18.1213C21.6837 17.5587 21.9998 16.7956 21.9998 16V6C21.9998 5.20435 21.6837 4.44129 21.1211 3.87868C20.5585 3.31607 19.7954 3 18.9998 3ZM19.9998 16C19.9998 16.2652 19.8944 16.5196 19.7069 16.7071C19.5193 16.8946 19.265 17 18.9998 17H8.54976C8.00358 16.9996 7.46765 17.1482 6.99976 17.43L3.99976 19.23V6C3.99976 5.73478 4.10511 5.48043 4.29265 5.29289C4.48019 5.10536 4.73454 5 4.99976 5H18.9998C19.265 5 19.5193 5.10536 19.7069 5.29289C19.8944 5.48043 19.9998 5.73478 19.9998 6V16Z" fill="#5568FE"/>
</svg>
