<svg width="28" height="28" viewBox="0 0 28 28" fill="none" xmlns="http://www.w3.org/2000/svg">
<path d="M25.5149 13.4167C24.7683 12.1217 20.6616 5.62335 13.6849 5.83335C7.23325 5.99668 3.49992 11.6667 2.48492 13.4167C2.38252 13.594 2.32861 13.7952 2.32861 14C2.32861 14.2048 2.38252 14.406 2.48492 14.5833C3.21992 15.855 7.15158 22.1667 14.0233 22.1667H14.3149C20.7666 22.0034 24.5116 16.3333 25.5149 14.5833C25.6173 14.406 25.6712 14.2048 25.6712 14C25.6712 13.7952 25.6173 13.594 25.5149 13.4167ZM14.2566 19.8334C9.22825 19.95 5.94992 15.645 4.92325 14C6.08992 12.1217 9.13492 8.28335 13.8016 8.16668C18.8066 8.03835 22.0966 12.355 23.1349 14C21.9333 15.8783 18.9233 19.7167 14.2566 19.8334Z" fill="#C0C2CC"/>
<path d="M13.9998 9.91669C13.1922 9.91669 12.4028 10.1562 11.7313 10.6049C11.0598 11.0535 10.5364 11.6913 10.2273 12.4374C9.91827 13.1835 9.83741 14.0046 9.99497 14.7966C10.1525 15.5887 10.5414 16.3163 11.1125 16.8874C11.6836 17.4584 12.4111 17.8473 13.2032 18.0049C13.9953 18.1625 14.8163 18.0816 15.5625 17.7725C16.3086 17.4635 16.9463 16.9401 17.395 16.2686C17.8437 15.5971 18.0832 14.8076 18.0832 14C18.0832 12.9171 17.653 11.8784 16.8872 11.1127C16.1214 10.3469 15.0828 9.91669 13.9998 9.91669ZM13.9998 15.75C13.6537 15.75 13.3154 15.6474 13.0276 15.4551C12.7398 15.2628 12.5155 14.9895 12.3831 14.6697C12.2506 14.3499 12.2159 13.9981 12.2835 13.6586C12.351 13.3191 12.5177 13.0073 12.7624 12.7626C13.0071 12.5178 13.319 12.3512 13.6584 12.2836C13.9979 12.2161 14.3498 12.2508 14.6695 12.3832C14.9893 12.5157 15.2626 12.74 15.4549 13.0278C15.6472 13.3156 15.7498 13.6539 15.7498 14C15.7498 14.4641 15.5655 14.9093 15.2373 15.2375C14.9091 15.5656 14.464 15.75 13.9998 15.75Z" fill="#C0C2CC"/>
</svg>
