<svg width="24" height="24" viewBox="0 0 24 24" fill="none" xmlns="http://www.w3.org/2000/svg">
<path d="M17 8C18.1046 8 19 7.10457 19 6C19 4.89543 18.1046 4 17 4C15.8954 4 15 4.89543 15 6C15 7.10457 15.8954 8 17 8Z" stroke="#C0C2CC" stroke-width="2" stroke-linecap="round" stroke-linejoin="round"/>
<path d="M7 14C8.10457 14 9 13.1046 9 12C9 10.8954 8.10457 10 7 10C5.89543 10 5 10.8954 5 12C5 13.1046 5.89543 14 7 14Z" stroke="#C0C2CC" stroke-width="2" stroke-linecap="round" stroke-linejoin="round"/>
<path d="M17 20C18.1046 20 19 19.1046 19 18C19 16.8954 18.1046 16 17 16C15.8954 16 15 16.8954 15 18C15 19.1046 15.8954 20 17 20Z" stroke="#C0C2CC" stroke-width="2" stroke-linecap="round" stroke-linejoin="round"/>
<path d="M9 13.5L15 17" stroke="#C0C2CC" stroke-width="2" stroke-linecap="round" stroke-linejoin="round"/>
<path d="M15 7L9 10.5" stroke="#C0C2CC" stroke-width="2" stroke-linecap="round" stroke-linejoin="round"/>
</svg>
