<svg width="20" height="20" viewBox="0 0 20 20" fill="none" xmlns="http://www.w3.org/2000/svg">
<path d="M10.0001 1.66669C8.35191 1.66669 6.74074 2.15543 5.37033 3.07111C3.99992 3.98679 2.93182 5.28827 2.30109 6.81099C1.67036 8.33371 1.50533 10.0093 1.82687 11.6258C2.14842 13.2423 2.94209 14.7271 4.10753 15.8926C5.27297 17.058 6.75782 17.8517 8.37433 18.1732C9.99084 18.4948 11.6664 18.3297 13.1891 17.699C14.7118 17.0683 16.0133 16.0002 16.929 14.6298C17.8447 13.2594 18.3334 11.6482 18.3334 10C18.3334 8.90567 18.1179 7.82204 17.6991 6.81099C17.2803 5.79994 16.6665 4.88129 15.8926 4.10746C15.1188 3.33364 14.2002 2.71981 13.1891 2.30102C12.1781 1.88224 11.0944 1.66669 10.0001 1.66669ZM10.0001 16.6667C8.68154 16.6667 7.39261 16.2757 6.29628 15.5432C5.19996 14.8106 4.34547 13.7694 3.84089 12.5512C3.3363 11.3331 3.20428 9.99263 3.46152 8.69942C3.71875 7.40621 4.35369 6.21833 5.28604 5.28598C6.21839 4.35363 7.40628 3.71869 8.69948 3.46145C9.99269 3.20422 11.3331 3.33624 12.5513 3.84082C13.7695 4.34541 14.8107 5.19989 15.5432 6.29622C16.2758 7.39255 16.6668 8.68148 16.6668 10C16.6668 11.7681 15.9644 13.4638 14.7141 14.7141C13.4639 15.9643 11.7682 16.6667 10.0001 16.6667Z" fill="#5568FE"/>
<path d="M12.5001 9.16669H10.8334V7.50002C10.8334 7.27901 10.7456 7.06705 10.5893 6.91076C10.4331 6.75448 10.2211 6.66669 10.0001 6.66669C9.77907 6.66669 9.56711 6.75448 9.41083 6.91076C9.25455 7.06705 9.16675 7.27901 9.16675 7.50002V9.16669H7.50008C7.27907 9.16669 7.06711 9.25448 6.91083 9.41076C6.75455 9.56705 6.66675 9.77901 6.66675 10C6.66675 10.221 6.75455 10.433 6.91083 10.5893C7.06711 10.7456 7.27907 10.8334 7.50008 10.8334H9.16675V12.5C9.16675 12.721 9.25455 12.933 9.41083 13.0893C9.56711 13.2456 9.77907 13.3334 10.0001 13.3334C10.2211 13.3334 10.4331 13.2456 10.5893 13.0893C10.7456 12.933 10.8334 12.721 10.8334 12.5V10.8334H12.5001C12.7211 10.8334 12.9331 10.7456 13.0893 10.5893C13.2456 10.433 13.3334 10.221 13.3334 10C13.3334 9.77901 13.2456 9.56705 13.0893 9.41076C12.9331 9.25448 12.7211 9.16669 12.5001 9.16669Z" fill="#5568FE"/>
</svg>
