<svg width="15" height="81" viewBox="0 0 15 81" fill="none" xmlns="http://www.w3.org/2000/svg">
<path d="M13.0616 78.9954L8.0378 78.9954C7.77132 78.9954 7.51575 78.89 7.32732 78.7025C7.13889 78.515 7.03303 78.2606 7.03303 77.9954L7.03303 3.0754L10.4291 5.7754C10.6059 5.91656 10.8255 5.99409 11.0521 5.9954C11.203 5.99471 11.3518 5.96019 11.4875 5.8944C11.6232 5.82861 11.7422 5.73325 11.8358 5.6154C12.0001 5.40817 12.0754 5.14469 12.0453 4.88243C12.0152 4.62017 11.8821 4.3804 11.6751 4.2154L6.65122 0.215398C6.47383 0.0758893 6.25435 5.40968e-07 6.02827 5.21202e-07C5.80218 5.01437e-07 5.5827 0.0758893 5.40531 0.215398L0.381478 4.2154C0.198425 4.38737 0.0868976 4.62145 0.0689613 4.87135C0.0510251 5.12124 0.127987 5.36872 0.284619 5.56484C0.441252 5.76096 0.666144 5.89142 0.914798 5.93041C1.16345 5.9694 1.41775 5.91408 1.62739 5.7754L5.0235 3.0754L5.0235 77.9954C5.0235 78.791 5.34108 79.5541 5.90637 80.1167C6.47166 80.6793 7.23836 80.9954 8.0378 80.9954L13.0616 80.9954C13.3281 80.9954 13.5837 80.89 13.7721 80.7025C13.9605 80.515 14.0664 80.2606 14.0664 79.9954C14.0664 79.7302 13.9605 79.4758 13.7721 79.2883C13.5837 79.1007 13.3281 78.9954 13.0616 78.9954Z" fill="#5568FE"/>
</svg>
