<svg width="24" height="24" viewBox="0 0 24 24" fill="none" xmlns="http://www.w3.org/2000/svg">
<path d="M18 6.99996L13 6.99996C12.7348 6.99996 12.4804 7.10532 12.2929 7.29286C12.1053 7.48039 12 7.73475 12 7.99996L12 16.92L15.38 14.22C15.5559 14.0788 15.7744 14.0013 16 14C16.1502 14.0007 16.2983 14.0352 16.4333 14.101C16.5684 14.1668 16.6869 14.2621 16.78 14.38C16.9435 14.5872 17.0184 14.8507 16.9885 15.1129C16.9585 15.3752 16.826 15.615 16.62 15.78L11.62 19.78C11.4434 19.9195 11.225 19.9954 11 19.9954C10.775 19.9954 10.5565 19.9195 10.38 19.78L5.37998 15.78C5.1978 15.608 5.0868 15.3739 5.06895 15.124C5.0511 14.8741 5.1277 14.6266 5.28359 14.4305C5.43947 14.2344 5.6633 14.1039 5.91077 14.0649C6.15825 14.026 6.41134 14.0813 6.61998 14.22L9.99998 16.92L9.99998 7.99996C9.99998 7.20431 10.3161 6.44125 10.8787 5.87864C11.4413 5.31603 12.2043 4.99996 13 4.99996L18 4.99996C18.2652 4.99996 18.5196 5.10532 18.7071 5.29286C18.8946 5.48039 19 5.73475 19 5.99996C19 6.26518 18.8946 6.51954 18.7071 6.70707C18.5196 6.89461 18.2652 6.99996 18 6.99996Z" fill="#5568FE"/>
</svg>
