<svg width="61" height="21" viewBox="0 0 61 21" fill="none" xmlns="http://www.w3.org/2000/svg">
<path d="M15.8 20L11.628 12.804C13.784 11.684 15.24 9.5 15.24 7.12C15.24 5.244 14.596 3.676 13.28 2.36C11.964 1.044 10.396 0.399999 8.52 0.399999H0.68V20H5.16V13.56H7.288L10.984 20H15.8ZM8.52 4.6C9.752 4.6 10.76 5.692 10.76 7.12C10.76 8.548 9.752 9.64 8.52 9.64H5.16V4.6H8.52ZM25.1866 12.216H32.1866V7.96H25.1866V4.712H32.8866V0.399999H20.7066V20H33.0266V15.688H25.1866V12.216ZM50.2542 0.399999H38.3542V20H42.8342V12.804H50.1142V8.492H42.8342V4.712H50.2542V0.399999Z" fill="#1F2539"/>
<path d="M59.8171 19.608C60.8531 18.572 60.8531 16.892 59.8171 15.856C58.7811 14.82 57.1011 14.82 56.0651 15.856C55.0291 16.892 55.0291 18.572 56.0651 19.608C57.1011 20.644 58.7811 20.644 59.8171 19.608Z" fill="#5568FE"/>
</svg>
